<svg height="326" viewBox="0 0 1166 326" width="1166" xmlns="http://www.w3.org/2000/svg"><g fill="none" fill-rule="evenodd"><g transform="translate(0 -21)"><g fill="#384fa0"><path d="m207.6 97.7v6.1l-6.4-95.9v-6.1z"/><path d="m76.8.4v6.1l-7.1 98.4v-6.1z"/><path d="m37.4 183.3v6.1l-37.3-41v-6.1z"/><path d="m277.5 142.4v6.1l-39 42v-6.1z"/><path d="m238.5 184.4v6.1l-4.9 15.1v-6.1z"/><path d="m43.9 199.8v6.1l-6.5-16.5v-6.1z"/><path d="m235.4 225.6v6.1l-31.7 78.1v-6.1z"/><path d="m74 303.7v6.1l-31.7-78.1v-6.1z"/></g><path d="m76.8.4-7.1 98.4 8.8 5.3 19.8-9.2v-5.3l40.5-18.2 40.6 18.2v5.4l19.6 9 8.6-6.3-6.4-95.9 76.3 119.3v21.3l-39 42-4.9 15.1 1.8 12.5v13.6l-31.7 78.1-64.9 27.8-64.8-27.8-31.7-78.1v-13.6l1.6-12.2-6.5-16.5-37.3-41v-21.2l46.8-73.2z" fill="#fff"/><path d="m203.7 303.7v6.1l-64.9 27.8v-6.1z" fill="#384fa0"/><path d="m138.8 331.5v6.1l-64.8-27.8v-6.1z" fill="#384fa0"/></g><g transform="translate(9 13)"><g fill="#101625"><path d="m36.2 140.5v4.2l-36.1-40v-4.1z"/><path d="m259.5 100.6v4.1l-37.9 41.2v-4.1z"/><path d="m44.6 161.9v4.2l-8.4-21.4v-4.2z"/><path d="m221.6 141.8v4.1l-6.6 20.3v-4.1z"/><path d="m72 259.8v4.1l-29.7-73.5v-4.2z"/><path d="m217.4 186.2v4.2l-29.7 73.5v-4.1z"/><path d="m187.7 259.8v4.1l-19.2 8.3v-4.1z"/><path d="m114.3 278.1v4.1l-42.3-18.3v-4.1z"/><path d="m168.5 268.1v4.1l-23.2 10.1v-4.2z"/><path d="m129.8 284.8v4.2l-15.5-6.8v-4.1z"/><path d="m145.3 278.1v4.2l-15.5 6.7v-4.2z"/></g><path d="m56.2.7-4.9 68.6 17.7 10.5 29.3-13.7v-5.3l31.5-14.2 31.6 14.2v5.4l29.7 13.8 16.8-12.5-4.4-66.3 56 88.3v11.1l-37.9 41.2-6.6 20.3 2.4 16.9v7.2l-29.7 73.6-19.2 8.3-23.2 10-15.5 6.7-15.5-6.7-42.3-18.3-29.7-73.6v-7.2l2.3-17.1-8.4-21.4-36.1-39.9v-11.1l45.4-71.6z" fill="#0c163a"/></g><g transform="translate(160 51)"><path d="m58.4 66.9v4.2l-4.3-18.6v-4.1z" fill="#384fa0"/><path d="m49.2 74.2v4.1l-5.1-20.5v-4.2z" fill="#384fa0"/><path d="m63.1.5 34.7 55.4-25.2 28.2-14.2-17.2-4.3-18.5 17-8.3z" fill="#fff"/><g fill="#384fa0"><path d="m97.8 55.9v4.2l-25.2 28.2v-4.2z"/><path d="m72.6 84.1v4.2l-14.2-17.2v-4.2z"/><path d="m42.7 77.6v4.1l-38.8 8.2v-4.1z"/><path d="m3.9 85.8v4.1l-3.8-24.3v-4.2z"/><path d="m67.4 87.9v4.1l-3.8 5.4v-4.2z"/><path d="m63.6 93.2v4.2l-14.4-19.1v-4.1z"/></g><path d="m49.6 49.4 3.9 20.4 13.9 18.1-3.8 5.3-14.4-19-5.1-20.6z" fill="#f1b91e"/><path d="m54.8 106v4.2l-13.1-4.8v-4.2z" fill="#384fa0"/><path d="m3.7 37.9 35.4 16.7 4.1 20.7 17 24.1-1.6 8.2-3.8-1.6-13.1-4.8 1-23.6-38.8 8.2-3.8-24.4z" fill="#fff"/><path d="m58.6 107.6v4.1l-3.8-1.5v-4.2z" fill="#384fa0"/><path d="m60.2 99.4v4.1l-1.6 8.2v-4.1z" fill="#384fa0"/></g><g transform="translate(19 51)"><path d="m35.4.5v4.1.4-4.2z" fill="#384fa0"/><path d="m140.8 30.7v4.2l-5.7 30.7v-4.2z" fill="#384fa0"/><path d="m104.6 61.4v4.2l-5.7-30.7v-4.2z" fill="#384fa0"/><path d="m44.5 48.3v4.2l-4.4 18.6v-4.2z" fill="#384fa0"/><path d="m55 53.1v4.1l-5.1 20.6v-4.1z" fill="#384fa0"/><path d="m35.6.5-8 39.6 16.9 8.2-4.4 18.6-14.2 17.2-25.2-28.2 34.7-55.4v.3z" fill="#fff"/><path d="m25.9 84.1v4.2l-25.2-28.2v-4.2z" fill="#384fa0"/><path d="m40.1 66.9v4.2l-14.2 17.2v-4.2z" fill="#384fa0"/><path d="m98.7 61.4v4.2l-4 24.3v-4.1z" fill="#384fa0"/><path d="m94.7 85.8v4.1l-38.7-8.2v-4.1z" fill="#384fa0"/><path d="m108 88.3h11.8v4.2h-11.8z" fill="#384fa0"/><path d="m119.8 88.3h11.8v4.2h-11.8z" fill="#384fa0"/><path d="m49.9 73.7v4.1l-14.4 19.1v-4.2z" fill="#384fa0"/><path d="m48.9 49.4 6.1 3.7-5.1 20.6-14.4 19-4.4-4.8 13.9-18.1z" fill="#f1b91e"/><path d="m35.5 92.7v4.2l-4.4-4.9v-4.1z" fill="#384fa0"/><path d="m57 100.9v4.1l-13.3 5.2v-4.1z" fill="#384fa0"/><path d="m95.2 37.8 3.5 23.6-4 24.4-38.7-8.2 1 23.3-13.3 5.2-3.8 1.5-1.6-8.2 17.1-24.1 4-20.7z" fill="#fff"/><path d="m43.7 106.1v4.1l-3.8 1.5v-4.1z" fill="#384fa0"/><path d="m39.9 107.6v4.1l-1.6-8.2v-4.1z" fill="#384fa0"/><path d="m140.8 102.1v4.2l-21 15.8v-4.2z" fill="#384fa0"/><path d="m140.8 30.7-5.7 30.7 5.7 40.7-20.9 15.8-20.9-15.8 5.7-40.7-5.7-30.7 20.9-9.6zm-21 69.2 11.8-11.5h-11.8-11.8z" fill="#f1b91e" fill-rule="nonzero"/><path d="m119.8 117.9v4.2l-20.9-15.8v-4.2z" fill="#384fa0"/><path d="m195.4 111.6v4.1l-3.1 16.6v-4.1z" fill="#384fa0"/><path d="m47.4 128.2v4.1l-3.3-17.1v-4.1z" fill="#384fa0"/><path d="m185.9 140.4v4.2l-4.3-14.3v-4.1z" fill="#384fa0"/><path d="m58 126.2v4.1l-4.2 14.3v-4.2z" fill="#384fa0"/><path d="m74.9 163.8v4.2l-2.3 2.5v-4.2z" fill="#384fa0"/><path d="m166.8 166.3v4.2l-2.2-2.4v-4.1z" fill="#384fa0"/><path d="m72.6 166.3v4.2l-21 4.4v-4.1z" fill="#384fa0"/><path d="m51.6 170.8v4.1l-8.7-25.8v-4.2z" fill="#384fa0"/><path d="m57.1 107.5.9 18.7-4.2 14.2 21.1 23.4-2.3 2.5-21 4.5-8.7-25.9 4.5-16.7-3.3-17.1z" fill="#f1b91e"/><path d="m188.1 170.9v4.1l-21.3-4.5v-4.2z" fill="#384fa0"/><path d="m196.8 144.9v4.2l-8.7 25.9v-4.1z" fill="#384fa0"/><path d="m182.5 108.1 12.9 3.5-3.1 16.6 4.5 16.7-8.7 26-21.3-4.6-2.2-2.3 21.3-23.6-4.3-14.2z" fill="#f1b91e"/><path d="m119.8 174.1v4.2l-23.6-3.4v-4.2z" fill="#384fa0"/><path d="m143.5 165.4v4.2l-23.7 14v-9.5z" fill="#384fa0"/><path d="m189.4 176.2v4.2l-24.6 11.9v-4.2z" fill="#384fa0"/><path d="m164.8 188.1v4.2l-21.3-22.7v-4.2z" fill="#384fa0"/><path d="m96.2 170.7v4.2l-21.4 17.4v-4.2z" fill="#384fa0"/><path d="m74.8 188.1v4.2l-24.6-11.9v-4.2z" fill="#384fa0"/><path d="m144.5 154.4 19 17.6 25.9 4.2-24.6 11.9-21.3-22.7-23.7 8.7-23.6-3.4-21.4 17.4-24.6-11.9 26-4.2 18.9-17.6 24.7 12.4z" fill="#f1b91e"/><path d="m103.9 186v4.2l-4.2-9.3v-4.1z" fill="#384fa0"/><path d="m134 191.8v4.1l-30.1-5.7v-4.2z" fill="#384fa0"/><path d="m139.7 171.6v4.1l-5.7 20.2v-4.1z" fill="#384fa0"/><path d="m99.7 176.8 20.1 2.1 19.9-7.3-5.7 20.2-30.1-5.8z" fill="#fff"/><g fill="#384fa0"><path d="m70 213.1v4.2l-12.2-28v-4.2z"/><path d="m181.9 185v4.1l-12.3 28.2v-4.2z"/><path d="m76.3 215.9v4.1l-6.3-2.7v-4.2z"/><path d="m169.6 213.1v4.2l-6.2 2.7v-4.1z"/><path d="m88.8 191.8v4.1l-12.5 24.1v-4.1z"/><path d="m163.4 215.9v4.1l-12.5-24.1v-4.1z"/><path d="m108.8 203.5v4.1l-9.9 22.3v-4.1z"/><path d="m98.9 225.8v4.1l-12.4-5.4v-4.2z"/><path d="m140.8 225.8v4.1l-9.9-22.3v-4.1z"/><path d="m153.2 220.3v4.2l-12.4 5.4v-4.1z"/><path d="m132.7 229.3v4.1l-12.9 5.7v-4.2z"/><path d="m119.8 234.9v4.2l-12.8-5.7v-4.1z"/></g><path d="m143.7 174 20.5 22 17.7-11-12.3 28.1-6.2 2.8-12.5-24.1 2.3 28.5-12.4 5.5-9.9-22.3 1.8 25.8-12.9 5.6-12.8-5.6 1.8-25.8-9.9 22.3-12.4-5.5 2.3-28.5-12.5 24.1-6.3-2.8-12.2-28 17.7 10.9 20.3-16.6 4.8 11.8 36.4 6.3z" fill="#f1b91e"/></g><g transform="translate(149 157)"><path d="m35.7.8v3.5l-2.3 18.6v-3.4z" fill="#384fa0"/><path d="m35.1 26.8v3.5l-8.7-4v-3.5z" fill="#384fa0"/><path d="m35.7.8-2.3 18.7 1.7 7.3-8.7-4-25.9 4.6 17.8-21.1z" fill="#fff"/><path d="m26.4 22.8v3.5l-25.9 4.6v-3.5z" fill="#384fa0"/></g><g transform="translate(92 164)"><path d="m3 13.3v3.5l-2.2-12.5v-3.5z" fill="#384fa0"/><path d="m10.2 15.8v3.5l-8.8 4v-3.5z" fill="#384fa0"/><path d="m.8.8 17.4 5.5 17.9 14.1-25.9-4.6-8.8 4 1.6-6.5z" fill="#fff"/><path d="m36.1 20.4v3.5l-25.9-4.6v-3.5z" fill="#384fa0"/></g><g transform="translate(301 65)"><g fill="#384fa0"><path d="m835.9 35.4v5.8c-1.9 6-9.2 28.3-14.3 43.7v-5.8c5.1-15.4 12.3-37.7 14.3-43.7"/><path d="m490.7 126.3v5.9l-74.6 18.8v-5.9z"/><path d="m416.1 145.1v5.9l-64.8-17.9v-5.9z"/><path d="m351.3 127.2v5.9l-351.2 33.4v-5.8z"/></g><path d="m835.9.6v34.8c-1.9 6-9.2 28.3-14.3 43.7 4.3 13.4 10.3 32.3 13.6 42.8l.7 2.1v36.8l-345.2-34.4-74.5 18.8-64.8-17.9-351.2 33.4v-123.4l15.7-36.7z" fill="#fff"/><path d="m835.9 160.7v5.9l-345.2-34.4v-5.9z" fill="#384fa0"/></g><g transform="translate(310 74)"><g fill="#101625"><path d="m817.5 19.2v5.8c-.5 1.6-10.5 32.8-15.7 48.5v-5.8c5.2-15.8 15.2-46.9 15.7-48.5"/><path d="m481 103.3v5.8l-73.8 18.8v-5.8z"/><path d="m407.2 122.1v5.8l-64.1-17.9v-5.8z"/></g><path d="m817.5.6v18.5c-.5 1.6-10.5 32.8-15.7 48.5 5.2 16.3 15.2 48.2 15.7 49.9v19.6l-336.6-34-73.7 18.8-64.1-17.9-342.7 33v-106.9l12.6-29.7h804.5z" fill="#0c163a"/><path d="m817.5 137.2v5.9l-336.5-34v-5.8z" fill="#101625"/><path d="m343.1 104.2v5.8l-342.7 33.1v-5.9z" fill="#101625"/></g><g transform="translate(321 86)"><g fill="#384fa0"><path d="m62.4 31v5.8c-10.7.3-21.4.6-32.1.9v-5.8c10.6-.3 21.4-.6 32.1-.9"/><path d="m32.3 67.2v5.8c-7 .4-14.1.9-21.1 1.3v-5.8c7-.5 14.1-.9 21.1-1.3"/><path d="m11.2 68.5v5.8c-4.3-6.2-6.4-9.3-10.6-15.7v-5.8c4.3 6.3 6.4 9.5 10.6 15.7"/><path d="m32.3 74.8v5.8c0-3 0-4.6 0-7.6v-5.8z"/><path d="m62.1 83.4v5.8c-3 6.9-5.9 13.9-8.8 20.8v-5.8c2.9-7 5.8-13.9 8.8-20.8"/><path d="m53.3 104.2v5.8c-17.6 1.7-35.1 3.4-52.6 5.1v-5.8c17.5-1.7 35-3.4 52.6-5.1"/></g><path d="m62.2.4c0 10.2.1 20.4.1 30.5-10.7.3-21.4.6-32.1.9v7.6c7.5-.3 15-.5 22.5-.8 3.7 6.1 5.5 9.1 9.2 15.1 0 9.8.1 19.7.1 29.5-3 6.9-5.9 13.9-8.8 20.8-17.6 1.7-35.1 3.4-52.6 5.1 0-10.8 0-21.6 0-32.3 10.6-.7 21.1-1.4 31.7-2.2 0-3 0-4.6 0-7.6-7 .4-14.1.9-21.1 1.3-4.3-6.2-6.4-9.3-10.6-15.7 0-10.4 0-20.8 0-31.3 2.9-7 5.9-14.1 8.8-21.1 17.6.2 35.2.2 52.8.2z" fill="#fff"/></g><g transform="translate(391 86)"><g fill="#384fa0"><path d="m67.2 28.8v5.8c-7.4.2-11.1.3-18.5.5v-5.8c7.3-.2 11.1-.3 18.5-.5"/><path d="m19 30.2v5.8c-7.4.2-11.1.3-18.4.5v-5.8c7.3-.2 11-.3 18.4-.5"/><path d="m.6 30.7v5.8c0-10.1-.1-20.2-.1-30.3v-5.8c0 10.1 0 20.2.1 30.3"/></g><path d="m66.9.4c.1 9.5.2 18.9.3 28.4-7.4.2-11.1.3-18.5.5.2 22.8.4 45.6.6 68.4-9.9 1-19.8 1.9-29.8 2.9-.1-23.5-.3-47-.4-70.5-7.4.2-11.1.3-18.4.5 0-10.1-.1-20.2-.1-30.3 22 .1 44.1.1 66.3.1z" fill="#fff"/><path d="m49.2 97.7v5.8c-9.9 1-19.8 1.9-29.8 2.9v-5.8c9.9-.9 19.8-1.9 29.8-2.9" fill="#384fa0"/><path d="m19.4 100.6v5.8c-.1-23.5-.3-47-.4-70.5v-5.8c.1 23.6.3 47.1.4 70.5" fill="#384fa0"/></g><g transform="translate(466 86)"><g fill="#384fa0"><path d="m40.2 27.3v5.8c-4.1.1-6.1.2-10.2.3v-5.8c4.1-.2 6.1-.2 10.2-.3"/><path d="m40.4 37.1v5.8c-.1-4-.1-5.9-.1-9.9v-5.8c0 4 0 6 .1 9.9"/><path d="m70.2 46.9v5.8c-3.9 6.3-5.9 9.5-9.9 16v-5.8c4-6.5 5.9-9.7 9.9-16"/><path d="m70.8 88.3v5.8c-10 1-20 2-30 2.9v-5.8c10-.9 20-1.9 30-2.9"/><path d="m40.8 91.2v5.8c-3.5-7.2-6.9-14.5-10.3-21.7v-5.8c3.4 7.2 6.9 14.5 10.3 21.7"/><path d="m1.1 95.1v5.8c-.3-31.6-.6-63.1-1-94.7v-5.8c.3 31.6.6 63.1 1 94.7"/><path d="m30.8 92.2v5.8c-9.9 1-19.8 1.9-29.8 2.9v-5.8c10-1 19.9-1.9 29.8-2.9"/></g><path d="m70.8 88.3c-10 1-20 2-30 2.9-3.5-7.2-6.9-14.5-10.3-21.7.1 7.6.2 15.1.3 22.7-9.9 1-19.8 1.9-29.8 2.9-.3-31.6-.6-63.1-1-94.7h59.6c4 7.3 6 11 10 18.1.2 9.4.3 18.9.5 28.3-3.9 6.3-5.9 9.5-9.9 16 4-.3 6.1-.4 10.1-.7.3 8.8.4 17.5.5 26.2zm-40.7-50.8c4.1-.2 6.1-.2 10.2-.4-.1-4-.1-5.9-.1-9.9-4.1.1-6.1.2-10.2.3.1 4 .1 6 .1 10z" fill="#fff" fill-rule="nonzero"/></g><g transform="translate(543 86)"><g fill="#384fa0"><path d="m62.6 24.5v5.8c-10.6.3-21.2.6-31.9.9v-5.8c10.6-.3 21.2-.6 31.9-.9"/><path d="m51.7 52.3v5.8c-8.2.5-12.3.8-20.5 1.3v-5.8c8.2-.6 12.3-.8 20.5-1.3"/><path d="m1.8 70.6v5.8c-.3-17.8-.6-35.6-.9-53.3v-5.8c.3 17.8.6 35.5.9 53.3"/></g><path d="m62 .4c.2 8 .4 16 .6 24.1-10.6.3-21.2.6-31.9.9 0 2.4.1 3.6.1 6.1 8.2-.3 12.3-.4 20.4-.7.2 7.2.3 14.3.5 21.5-8.2.5-12.3.8-20.5 1.3 0 2.4.1 3.6.1 6.1 10.7-.7 21.3-1.5 32-2.2.2 8 .4 16 .6 24.1-17.6 1.7-35.3 3.4-52.9 5.2-3.7-6.3-5.5-9.5-9.2-16-.3-17.8-.6-35.6-.9-53.3 3.4-6.8 5.1-10.2 8.5-16.9 17.6-.2 35.1-.2 52.6-.2z" fill="#fff"/><path d="m63.9 81.5v5.8c-17.6 1.7-35.3 3.4-52.9 5.2v-5.8c17.6-1.8 35.2-3.5 52.9-5.2" fill="#384fa0"/><path d="m11 86.6v5.8c-3.7-6.3-5.5-9.5-9.2-16v-5.8c3.7 6.5 5.5 9.7 9.2 16" fill="#384fa0"/></g><g transform="translate(613 86)"><g fill="#384fa0"><path d="m41.7 34.6v5.8c-1.3 6.3-3.3 15.6-3.4 16.1v-5.8c.1-.5 2-9.8 3.4-16.1"/><path d="m45.9 51.6v5.8c-.1-.5-2.5-10.2-4.2-16.9v-5.8c1.6 6.6 4 16.3 4.2 16.9"/><path d="m51.3 72.4v5.9l-17.6-2.1v-5.8z"/><path d="m33.7 70.4v5.8c-.1.2-1.3 4.5-2.2 7.4v-5.8c.9-3 2.1-7.2 2.2-7.4"/><path d="m53.8 80.5v5.8c-1-3.3-2.4-7.9-2.5-8.1v-5.8c.1.3 1.5 4.9 2.5 8.1"/><path d="m31.5 77.8v5.8c-10.4 1-20.8 2-31.3 3.1v-5.8c10.5-1.1 20.9-2.1 31.3-3.1"/></g><path d="m61.4.4c8.1 29.6 15.5 59.3 22.4 89.2-10-3-20-6.1-30-9.1-1-3.3-2.4-7.9-2.5-8.1l-17.6-2.1c-.1.2-1.3 4.5-2.2 7.4-10.4 1-20.8 2-31.3 3.1 6.5-26.8 13-53.6 19.7-80.4zm-23.1 50.3 7.6.8c-.1-.5-2.5-10.2-4.2-16.9-1.4 6.3-3.3 15.6-3.4 16.1z" fill="#fff" fill-rule="nonzero"/><path d="m83.8 89.6v5.8c-10-3-20-6.1-30-9.1v-5.8c10 3 20 6.1 30 9.1" fill="#384fa0"/></g><g transform="translate(702 86)"><g fill="#384fa0"><path d="m79.5 23.5v5.8c-4.1.4-6.1.5-10.2.9v-5.8c4.1-.3 6.1-.5 10.2-.9"/><path d="m40 27v5.8c-4.1.4-6.1.5-10.2.9v-5.8c4.1-.4 6.2-.5 10.2-.9"/><path d="m89 75.9v5.8l-10.9 2v-5.9z"/><path d="m109.4 14.2v5.8c-.6 21.7-1.6 63.1-1.7 65.2v-5.8c.1-2.2 1.1-43.5 1.7-65.2"/><path d="m107.7 79.4v5.8l-18.7-3.5v-5.8z"/><path d="m69.3 24.4v5.8c-.4 18.8-.8 37.6-1.2 56.4v-5.8c.4-18.8.8-37.6 1.2-56.4"/><path d="m68.1 80.8v5.8c-9.5 2.9-19.1 5.8-28.6 8.6v-5.8c9.5-2.8 19.1-5.7 28.6-8.6"/><path d="m.9 91.5v5.8c0-3-.4-60.7-.5-91v-5.8c.2 30.3.5 87.9.5 91"/><path d="m29.8 27.9v5.8c-.1 21.5-.3 62.5-.3 64.6v-5.8c0-2.1.2-43.1.3-64.6"/><path d="m29.5 92.5v5.9l-13.9 2.4v-5.9z"/><path d="m15.6 94.9v5.9l-14.7-3.5v-5.8z"/></g><path d="m100.5.4c3.5 5.4 5.3 8.2 8.8 13.7-.6 21.7-1.6 63.1-1.7 65.2l-18.7-3.5-11 1.9c0-1.8 1-36.2 1.5-54.3-4.1.4-6.1.5-10.2.9-.4 18.8-.8 37.6-1.2 56.4-9.5 2.9-19.1 5.8-28.6 8.6.2-20.8.4-41.7.5-62.5-4.1.4-6.1.5-10.2.9-.1 21.5-.3 62.5-.3 64.6l-13.9 2.4-14.7-3.5c0-3-.4-60.7-.5-91 33.5.2 66.8.2 100.2.2z" fill="#fff"/></g><g transform="translate(818 86)"><g fill="#384fa0"><path d="m62.8 25.9v5.8c-10.6-.3-21.2-.6-31.9-.9v-5.8c10.7.3 21.3.6 31.9.9"/><path d="m63.3.4v5.8c-.2 8.5-.3 17-.5 25.5v-5.8c.2-8.5.3-17 .5-25.5"/><path d="m31 25v5.8c-.2 11.2-.5 22.4-.7 33.6v-5.8c.2-11.3.4-22.4.7-33.6"/><path d="m8.8 81.1v5.8c-3.4-6.6-5.1-9.9-8.5-16.3v-5.8c3.4 6.4 5.1 9.7 8.5 16.3"/></g><path d="m63.3.4c-.2 8.5-.3 17-.5 25.5-10.6-.3-21.2-.6-31.9-.9-.2 11.2-.5 22.4-.7 33.6 10.7.7 21.3 1.5 32 2.2-.2 8.5-.3 17-.5 25.5-17.6-1.7-35.3-3.4-52.9-5.2-3.4-6.6-5.1-9.9-8.5-16.3.4-16.3.8-32.6 1.2-48.9 3.7-6.1 5.5-9.2 9.2-15.5z" fill="#fff"/><path d="m62.2 60.7v5.8c-.2 8.5-.3 17-.5 25.5v-5.8c.2-8.5.3-17 .5-25.5" fill="#384fa0"/><path d="m61.7 86.2v5.8c-17.6-1.7-35.3-3.4-52.9-5.2v-5.8c17.7 1.8 35.3 3.5 52.9 5.2" fill="#384fa0"/></g><g transform="translate(887 86)"><g fill="#384fa0"><path d="m41.9 27.2v5.8c-4.1-.1-6.1-.2-10.2-.3v-5.8c4 .1 6.1.2 10.2.3"/><path d="m31.7 26.9v5.8c-.1 3.9-.1 5.8-.1 9.7v-5.8c0-3.9 0-5.8.1-9.7"/><path d="m71.6 19.7v5.8c-.1 10-.2 20.1-.3 30.1v-5.8c.1-10 .2-20.1.3-30.1"/><path d="m71.3 49.8v5.8c-4.1 6.3-6.2 9.4-10.3 15.6v-5.8c4.1-6.2 6.1-9.3 10.3-15.6"/><path d="m31.1 67.8v5.8c-.1 7.4-.2 14.8-.3 22.2v-5.8c.1-7.5.2-14.8.3-22.2"/><path d="m30.7 89.9v5.8c-9.9-1-19.8-1.9-29.8-2.9v-5.8c10 1 19.9 2 29.8 2.9"/><path d="m40.7 90.9v5.8c-3.2-7.7-6.4-15.4-9.7-23.1v-5.8c3.3 7.7 6.5 15.4 9.7 23.1"/></g><path d="m71.6 19.7c-.1 10-.2 20.1-.3 30.1-4.1 6.3-6.2 9.4-10.3 15.6 4 .3 6.1.4 10.1.7-.1 9.3-.2 18.5-.3 27.7-10-1-20-2-30-2.9-3.2-7.7-6.4-15.4-9.7-23.1-.1 7.4-.2 14.8-.3 22.2-9.9-1-19.8-1.9-29.8-2.9.5-28.9 1-57.7 1.5-86.6h59.6c3.2 6.3 6.4 12.8 9.5 19.2zm-29.9 17.3c.1-3.9.1-5.9.1-9.9-4.1-.1-6.1-.2-10.2-.3-.1 3.9-.1 5.8-.1 9.7 4.1.3 6.2.4 10.2.5z" fill="#fff" fill-rule="nonzero"/><path d="m70.8 93.8v5.8c-10-1-20-2-30-2.9v-5.8c10 1 20 2 30 2.9" fill="#384fa0"/><path d="m71.1 66.1v5.8c-.1 9.3-.2 18.5-.3 27.7v-5.8c.1-9.2.2-18.5.3-27.7" fill="#384fa0"/></g><g transform="translate(966 86)"><g fill="#384fa0"><path d="m30.6.4v5.8c-.2 22.7-.4 45.4-.6 68.1v-5.8c.2-22.7.4-45.4.6-68.1"/><path d="m70.5.4v5.8c-.1 27.8-.3 55.6-.4 83.5v-5.8c.1-27.8.2-55.7.4-83.5"/><path d="m9 95.5v5.8c-2.9-6.3-5.9-12.7-8.8-19v-5.8c3 6.3 5.9 12.7 8.8 19"/></g><path d="m70.5.4c-.1 27.8-.3 55.6-.4 83.5-3.7 6.7-5.6 10.1-9.3 16.7-17.2-1.7-34.4-3.4-51.7-5-2.9-6.3-5.9-12.7-8.8-19 .3-25.4.5-50.7.8-76.1h29.6c-.2 22.7-.4 45.4-.6 68.1 4.1.3 6.2.4 10.4.7.2-22.9.3-45.9.5-68.8 9.7-.1 19.6-.1 29.5-.1z" fill="#fff"/><path d="m70 83.9v5.8c-3.7 6.7-5.6 10.1-9.3 16.7v-5.8c3.7-6.6 5.6-10 9.3-16.7" fill="#384fa0"/><path d="m60.7 100.6v5.8c-17.2-1.7-34.4-3.4-51.7-5v-5.8c17.2 1.6 34.5 3.3 51.7 5" fill="#384fa0"/></g><g transform="translate(1042 86)"><g fill="#384fa0"><path d="m17.4 52.1v5.8c-5.5-17.3-11-34.5-16.6-51.7v-5.8c5.6 17.2 11.1 34.5 16.6 51.7"/><path d="m74.3.4v5.8c-5.6 17.9-11.4 35.8-17.2 53.7v-5.8c5.9-17.9 11.6-35.8 17.2-53.7"/><path d="m37.2 82.8v5.8c-2.3 7.4-4.7 14.8-7.1 22.2v-5.8c2.5-7.4 4.8-14.8 7.1-22.2"/><path d="m30.2 105v5.8c-10-1-19.9-1.9-29.9-2.9v-5.8c10 1 19.9 1.9 29.9 2.9"/><path d="m44.4 106.4v5.8c-2.4-7.9-4.8-15.8-7.2-23.6v-5.8c2.5 7.8 4.9 15.7 7.2 23.6"/></g><path d="m74.3.4c-5.6 17.9-11.4 35.8-17.2 53.7 5.8 18.4 11.5 36.8 17.2 55.2-10-1-19.9-1.9-29.9-2.9-2.4-7.9-4.8-15.8-7.2-23.6-2.3 7.4-4.7 14.8-7.1 22.2-10-1-19.9-1.9-29.9-2.9 5.8-16.6 11.5-33.3 17.1-49.9-5.5-17.3-11-34.5-16.6-51.7h29.7c2.3 7.6 4.6 15.3 6.9 22.9 2.4-7.6 4.9-15.3 7.3-22.9 9.9-.1 19.8-.1 29.7-.1z" fill="#fff"/><path d="m74.3 109.3v5.8c-10-1-19.9-1.9-29.9-2.9v-5.8c10 1 20 1.9 29.9 2.9" fill="#384fa0"/></g></g></svg>